<?xml version="1.0" standalone="no"?>
<!DOCTYPE svg PUBLIC "-//W3C//DTD SVG 20010904//EN"
 "http://www.w3.org/TR/2001/REC-SVG-20010904/DTD/svg10.dtd">
<svg version="1.0" xmlns="http://www.w3.org/2000/svg"
 width="350.000000pt" height="350.000000pt" viewBox="0 0 350.000000 350.000000"
 preserveAspectRatio="xMidYMid meet">
<metadata>
Created by potrace 1.11, written by Peter Selinger 2001-2013
</metadata>
<g transform="translate(0.000000,350.000000) scale(0.100000,-0.100000)"
fill="#000000" stroke="none">
<path d="M2310 2498 c-58 -40 -77 -107 -46 -167 30 -57 116 -83 174 -52 35 19
62 70 62 119 0 95 -111 154 -190 100z m119 -44 c61 -51 28 -144 -50 -144 -83
0 -118 83 -60 141 36 36 70 37 110 3z"/>
<path d="M1742 2236 c-110 -41 -197 -117 -243 -214 -30 -65 -38 -186 -15 -247
59 -154 277 -182 371 -47 27 39 30 52 30 117 0 65 -3 78 -30 117 -36 51 -102
88 -159 88 -39 0 -39 0 -21 20 21 23 150 90 173 90 11 0 13 8 8 38 -3 20 -6
43 -6 50 0 18 -37 14 -108 -12z m3 -322 c35 -38 34 -98 -2 -136 -69 -73 -178
13 -138 108 25 60 97 74 140 28z"/>
<path d="M1129 2236 c-51 -18 -94 -51 -118 -90 -29 -46 -27 -53 19 -76 l40
-20 43 45 c40 41 48 45 90 45 39 0 47 -3 47 -18 0 -22 -59 -80 -122 -119 l-47
-30 26 -39 c14 -21 27 -40 28 -42 2 -2 20 6 41 17 48 26 65 26 98 0 46 -36 29
-102 -36 -135 -43 -22 -119 -21 -168 4 l-40 20 -27 -46 -27 -45 28 -22 c86
-69 259 -57 348 23 50 45 68 85 68 154 0 60 -22 104 -68 138 l-30 22 24 35
c80 118 -62 235 -217 179z"/>
<path d="M2065 2231 c-51 -23 -68 -42 -101 -116 -53 -115 -42 -292 24 -390 59
-87 183 -110 272 -51 156 103 141 482 -23 556 -53 25 -120 25 -172 1z m147
-121 c30 -41 44 -150 30 -233 -16 -93 -41 -127 -92 -127 -29 0 -43 6 -59 25
-53 69 -53 272 1 340 28 35 92 32 120 -5z"/>
<path d="M2540 1876 l0 -34 68 -12 c271 -51 502 -161 502 -240 0 -63 -160
-151 -372 -205 -205 -51 -416 -80 -750 -101 l-98 -6 0 -34 c0 -33 1 -34 38
-34 65 0 312 20 441 36 467 56 781 180 807 318 9 52 -1 82 -46 130 -75 81
-231 147 -469 196 -123 26 -121 26 -121 -14z"/>
<path d="M724 1865 c-268 -71 -404 -164 -404 -275 0 -121 170 -221 500 -294
174 -38 576 -85 738 -86 21 0 22 -4 22 -86 0 -47 4 -84 9 -82 16 6 250 193
251 200 0 7 -245 208 -254 208 -3 0 -6 -37 -8 -82 l-3 -83 -95 3 c-373 12
-798 93 -979 187 -60 31 -111 85 -111 117 0 74 147 152 408 218 39 10 42 13
42 45 0 41 2 41 -116 10z"/>
</g>
</svg>
